{"asset":{"version":"2.0","generator":"THREE.GLTFExporter"},"scenes":[{"nodes":[0],"name":"AuxScene"}],"scene":0,"nodes":[{"mesh":0}],"bufferViews":[{"buffer":0,"byteOffset":0,"byteLength":37692,"target":34962,"byteStride":12},{"buffer":0,"byteOffset":37692,"byteLength":37692,"target":34962,"byteStride":12}],"buffers":[{"byteLength":75384,"uri":"data:application/octet-stream;base64,"}],"accessors":[{"bufferView":0,"componentType":5126,"count":3141,"max":[100.61190795898438,31.795974731445312,100.61190795898438],"min":[-100.78809356689453,0.295974999666214,-100.78809356689453],"type":"VEC3"},{"bufferView":1,"componentType":5126,"count":3141,"max":[0.9863921999931335,1,0.9575180411338806],"min":[-0.948684573173523,0.041624944657087326,-0.986396312713623],"type":"VEC3"}],"materials":[{"pbrMetallicRoughness":{"baseColorFactor":[0.5019607843137255,0.5019607843137255,0.5019607843137255,1],"metallicFactor":0,"roughnessFactor":1}}],"meshes":[{"primitives":[{"mode":4,"attributes":{"POSITION":0,"NORMAL":1},"material":0}]}]}